<svg id="visual" viewBox="0 0 900 600" width="900" height="600" xmlns="http://www.w3.org/2000/svg" xmlns:xlink="http://www.w3.org/1999/xlink" version="1.1"><rect x="0" y="0" width="900" height="600" fill="#d4f1f9"></rect><g transform="translate(434.0344175567738 303.24159954659586)"><path d="M139.4 -160.5C188 -125.4 239.8 -88.4 241.7 -47.1C243.7 -5.8 195.9 39.9 162.7 90.7C129.5 141.6 110.9 197.6 72.2 222.1C33.4 246.5 -25.5 239.3 -83.2 221.4C-140.9 203.6 -197.3 175 -207.9 132C-218.4 89 -183.1 31.5 -172.9 -31.3C-162.8 -94 -177.8 -161.9 -153.2 -201.2C-128.6 -240.5 -64.3 -251.3 -9.4 -240C45.4 -228.8 90.8 -195.6 139.4 -160.5" fill="#75aedc"></path></g></svg>