<svg id="visual" viewBox="0 0 900 600" width="900" height="600" xmlns="http://www.w3.org/2000/svg" xmlns:xlink="http://www.w3.org/1999/xlink" version="1.1"><rect x="0" y="0" width="900" height="600" fill="#30004a"></rect><g transform="translate(460.14646542401846 259.3380900642721)"><path d="M128.6 -176.4C153.1 -159.3 149.8 -103.5 167.8 -53.3C185.8 -3.1 225.1 41.4 218.3 73.6C211.5 105.8 158.7 125.7 114.6 161.4C70.5 197.1 35.3 248.5 -9.1 261.1C-53.5 273.6 -107 247.2 -136.8 206.9C-166.6 166.6 -172.7 112.4 -192.1 60.6C-211.5 8.8 -244.1 -40.6 -238.8 -84C-233.5 -127.4 -190.2 -164.8 -144.1 -174.8C-98 -184.8 -49 -167.4 1.6 -169.6C52.1 -171.7 104.2 -193.5 128.6 -176.4" fill="#000000"></path></g></svg>