<svg id="visual" viewBox="0 0 900 600" width="900" height="600" xmlns="http://www.w3.org/2000/svg" xmlns:xlink="http://www.w3.org/1999/xlink" version="1.1"><rect x="0" y="0" width="900" height="600" fill="#d4f1f9"></rect><g transform="translate(452.9481216503677 282.09543345604385)"><path d="M106.3 -132.9C141.9 -96.8 177.8 -67.3 195.7 -25.7C213.5 15.9 213.3 69.4 193.7 119.7C174.1 170 135.1 217 84.2 238.8C33.3 260.6 -29.5 257.2 -88.8 238.2C-148.2 219.1 -204 184.6 -213.2 137.9C-222.4 91.3 -185.1 32.6 -164.4 -19.3C-143.7 -71.2 -139.7 -116.4 -115 -154.4C-90.4 -192.4 -45.2 -223.2 -4.9 -217.3C35.4 -211.5 70.7 -168.9 106.3 -132.9" fill="#75aedc"></path></g></svg>