<svg id="visual" viewBox="0 0 900 600" width="900" height="600" xmlns="http://www.w3.org/2000/svg" xmlns:xlink="http://www.w3.org/1999/xlink" version="1.1"><rect x="0" y="0" width="900" height="600" fill="#30004a"></rect><g transform="translate(446.6883709608038 309.20286578419643)"><path d="M127.5 -173.1C175 -140.9 230.2 -116.8 254.7 -74.8C279.3 -32.9 273.3 27 240.4 62.7C207.6 98.3 147.9 109.9 103.3 139.7C58.8 169.6 29.4 217.8 -7.8 228.6C-45.1 239.4 -90.1 212.7 -135.3 183.1C-180.5 153.4 -225.8 120.7 -247.6 75.3C-269.5 29.9 -267.9 -28.3 -245.2 -74C-222.6 -119.7 -178.9 -152.9 -134.5 -186.1C-90.1 -219.4 -45.1 -252.7 -2.5 -249.2C40 -245.7 79.9 -205.4 127.5 -173.1" fill="#000000"></path></g></svg>