<svg id="visual" viewBox="0 0 900 600" width="900" height="600" xmlns="http://www.w3.org/2000/svg" xmlns:xlink="http://www.w3.org/1999/xlink" version="1.1"><rect x="0" y="0" width="900" height="600" fill="#d4f1f9"></rect><g transform="translate(445.1791246184116 347.13884606451404)"><path d="M170.1 -206.7C211.6 -167.9 230.4 -105.9 236.9 -45.3C243.5 15.4 237.8 74.7 204.8 105.5C171.8 136.3 111.6 138.6 62.3 145.3C13.1 151.9 -25.1 162.9 -59.9 154.6C-94.7 146.2 -126.2 118.6 -161.4 81.6C-196.7 44.5 -235.7 -2 -228.9 -40.4C-222.2 -78.8 -169.6 -109.1 -123.8 -147.2C-78 -185.3 -39 -231.1 12.6 -246.2C64.3 -261.3 128.6 -245.5 170.1 -206.7" fill="#75aedc"></path></g></svg>