<svg id="visual" viewBox="0 0 900 600" width="900" height="600" xmlns="http://www.w3.org/2000/svg" xmlns:xlink="http://www.w3.org/1999/xlink" version="1.1"><rect x="0" y="0" width="900" height="600" fill="#30004a"></rect><g transform="translate(468.7766263539092 307.0613229014479)"><path d="M129.1 -175C161.5 -154.2 177.7 -108.6 188.3 -64.1C198.8 -19.5 203.5 24.1 193.8 65.8C184.1 107.4 159.9 147.1 125.2 179.5C90.5 211.9 45.3 237 -0.4 237.5C-46 238 -92.1 214.1 -123.2 180.5C-154.2 146.9 -170.3 103.8 -189.1 58.5C-208 13.2 -229.5 -34.2 -235.2 -94.9C-240.9 -155.5 -230.6 -229.4 -188.8 -247.1C-146.9 -264.8 -73.5 -226.1 -12.5 -208.9C48.4 -191.6 96.8 -195.7 129.1 -175" fill="#000000"></path></g></svg>